<svg xmlns="http://www.w3.org/2000/svg" viewBox="0 0 16 16" width="128" height="128" shape-rendering="crispEdges">
<rect width="16" height="16" fill="#E5E7EB" rx="3"/>
<rect x="6" y="2" width="1" height="1" fill="#292524"/><rect x="7" y="2" width="1" height="1" fill="#292524"/><rect x="8" y="2" width="1" height="1" fill="#292524"/><rect x="9" y="2" width="1" height="1" fill="#292524"/><rect x="7" y="8" width="1" height="1" fill="#D4A574"/><rect x="8" y="8" width="1" height="1" fill="#D4A574"/><rect x="9" y="8" width="1" height="1" fill="#D4A574"/><rect x="10" y="8" width="1" height="1" fill="#D4A574"/><rect x="7" y="3" width="1" height="1" fill="#1E293B"/><rect x="8" y="3" width="1" height="1" fill="#1E293B"/><rect x="11" y="5" width="1" height="1" fill="#C08050"/><rect x="11" y="6" width="1" height="1" fill="#C08050"/><rect x="12" y="7" width="1" height="1" fill="#C08050"/><rect x="5" y="8" width="1" height="1" fill="#374151"/><rect x="6" y="8" width="1" height="1" fill="#374151"/><rect x="11" y="8" width="1" height="1" fill="#374151"/><rect x="4" y="9" width="1" height="1" fill="#374151"/><rect x="5" y="9" width="1" height="1" fill="#374151"/><rect x="6" y="9" width="1" height="1" fill="#374151"/><rect x="7" y="9" width="1" height="1" fill="#374151"/><rect x="8" y="9" width="1" height="1" fill="#374151"/><rect x="9" y="9" width="1" height="1" fill="#374151"/><rect x="10" y="9" width="1" height="1" fill="#374151"/><rect x="11" y="9" width="1" height="1" fill="#374151"/><rect x="4" y="10" width="1" height="1" fill="#374151"/><rect x="5" y="10" width="1" height="1" fill="#374151"/><rect x="6" y="10" width="1" height="1" fill="#374151"/><rect x="7" y="10" width="1" height="1" fill="#374151"/><rect x="8" y="10" width="1" height="1" fill="#374151"/><rect x="9" y="10" width="1" height="1" fill="#374151"/><rect x="10" y="10" width="1" height="1" fill="#374151"/><rect x="11" y="10" width="1" height="1" fill="#374151"/><rect x="5" y="11" width="1" height="1" fill="#374151"/><rect x="6" y="11" width="1" height="1" fill="#374151"/><rect x="7" y="11" width="1" height="1" fill="#374151"/><rect x="8" y="11" width="1" height="1" fill="#374151"/><rect x="9" y="11" width="1" height="1" fill="#374151"/><rect x="10" y="11" width="1" height="1" fill="#374151"/><rect x="13" y="4" width="1" height="1" fill="#EF4444"/><rect x="13" y="5" width="1" height="1" fill="#EF4444"/><rect x="13" y="6" width="1" height="1" fill="#EF4444"/><rect x="12" y="5" width="1" height="1" fill="#EF4444"/>
</svg>