<svg xmlns="http://www.w3.org/2000/svg" viewBox="0 0 16 16" width="128" height="128" shape-rendering="crispEdges">
<rect width="16" height="16" fill="#14532D" rx="3"/>
<rect x="6" y="0" width="1" height="1" fill="#16A34A"/><rect x="7" y="0" width="1" height="1" fill="#16A34A"/><rect x="8" y="0" width="1" height="1" fill="#16A34A"/><rect x="9" y="0" width="1" height="1" fill="#16A34A"/><rect x="5" y="1" width="1" height="1" fill="#16A34A"/><rect x="6" y="1" width="1" height="1" fill="#16A34A"/><rect x="7" y="1" width="1" height="1" fill="#16A34A"/><rect x="8" y="1" width="1" height="1" fill="#16A34A"/><rect x="9" y="1" width="1" height="1" fill="#16A34A"/><rect x="10" y="1" width="1" height="1" fill="#16A34A"/><rect x="4" y="2" width="1" height="1" fill="#16A34A"/><rect x="5" y="2" width="1" height="1" fill="#16A34A"/><rect x="10" y="2" width="1" height="1" fill="#16A34A"/><rect x="11" y="2" width="1" height="1" fill="#16A34A"/><rect x="4" y="3" width="1" height="1" fill="#16A34A"/><rect x="5" y="3" width="1" height="1" fill="#16A34A"/><rect x="10" y="3" width="1" height="1" fill="#16A34A"/><rect x="11" y="3" width="1" height="1" fill="#16A34A"/><rect x="6" y="2" width="1" height="1" fill="#FECDD3"/><rect x="7" y="2" width="1" height="1" fill="#FECDD3"/><rect x="8" y="2" width="1" height="1" fill="#FECDD3"/><rect x="9" y="2" width="1" height="1" fill="#FECDD3"/><rect x="6" y="3" width="1" height="1" fill="#FECDD3"/><rect x="7" y="3" width="1" height="1" fill="#FECDD3"/><rect x="8" y="3" width="1" height="1" fill="#FECDD3"/><rect x="9" y="3" width="1" height="1" fill="#FECDD3"/><rect x="6" y="4" width="1" height="1" fill="#FECDD3"/><rect x="7" y="4" width="1" height="1" fill="#FECDD3"/><rect x="8" y="4" width="1" height="1" fill="#FECDD3"/><rect x="9" y="4" width="1" height="1" fill="#FECDD3"/><rect x="7" y="3" width="1" height="1" fill="#1E293B"/><rect x="9" y="3" width="1" height="1" fill="#1E293B"/><rect x="8" y="4" width="1" height="1" fill="#F87171"/><rect x="5" y="5" width="1" height="1" fill="#15803D"/><rect x="6" y="5" width="1" height="1" fill="#15803D"/><rect x="7" y="5" width="1" height="1" fill="#15803D"/><rect x="8" y="5" width="1" height="1" fill="#15803D"/><rect x="9" y="5" width="1" height="1" fill="#15803D"/><rect x="10" y="5" width="1" height="1" fill="#15803D"/><rect x="5" y="6" width="1" height="1" fill="#15803D"/><rect x="6" y="6" width="1" height="1" fill="#15803D"/><rect x="7" y="6" width="1" height="1" fill="#15803D"/><rect x="8" y="6" width="1" height="1" fill="#15803D"/><rect x="9" y="6" width="1" height="1" fill="#15803D"/><rect x="10" y="6" width="1" height="1" fill="#15803D"/><rect x="5" y="7" width="1" height="1" fill="#15803D"/><rect x="6" y="7" width="1" height="1" fill="#15803D"/><rect x="7" y="7" width="1" height="1" fill="#15803D"/><rect x="8" y="7" width="1" height="1" fill="#15803D"/><rect x="9" y="7" width="1" height="1" fill="#15803D"/><rect x="10" y="7" width="1" height="1" fill="#15803D"/><rect x="5" y="8" width="1" height="1" fill="#15803D"/><rect x="6" y="8" width="1" height="1" fill="#15803D"/><rect x="7" y="8" width="1" height="1" fill="#15803D"/><rect x="8" y="8" width="1" height="1" fill="#15803D"/><rect x="9" y="8" width="1" height="1" fill="#15803D"/><rect x="10" y="8" width="1" height="1" fill="#15803D"/><rect x="6" y="9" width="1" height="1" fill="#15803D"/><rect x="7" y="9" width="1" height="1" fill="#15803D"/><rect x="8" y="9" width="1" height="1" fill="#15803D"/><rect x="9" y="9" width="1" height="1" fill="#15803D"/><rect x="6" y="10" width="1" height="1" fill="#92400E"/><rect x="7" y="10" width="1" height="1" fill="#92400E"/><rect x="8" y="10" width="1" height="1" fill="#92400E"/><rect x="9" y="10" width="1" height="1" fill="#92400E"/><rect x="6" y="11" width="1" height="1" fill="#92400E"/><rect x="7" y="11" width="1" height="1" fill="#92400E"/><rect x="8" y="11" width="1" height="1" fill="#92400E"/><rect x="9" y="11" width="1" height="1" fill="#92400E"/><rect x="7" y="7" width="1" height="1" fill="#FBBF24"/><rect x="8" y="7" width="1" height="1" fill="#FBBF24"/><rect x="11" y="2" width="1" height="1" fill="#E2E8F0"/><rect x="11" y="3" width="1" height="1" fill="#E2E8F0"/><rect x="11" y="4" width="1" height="1" fill="#E2E8F0"/><rect x="11" y="5" width="1" height="1" fill="#E2E8F0"/><rect x="11" y="6" width="1" height="1" fill="#E2E8F0"/><rect x="11" y="7" width="1" height="1" fill="#E2E8F0"/><rect x="11" y="8" width="1" height="1" fill="#E2E8F0"/><rect x="3" y="4" width="1" height="1" fill="#78350F"/><rect x="3" y="5" width="1" height="1" fill="#78350F"/><rect x="3" y="6" width="1" height="1" fill="#78350F"/><rect x="3" y="7" width="1" height="1" fill="#78350F"/><rect x="3" y="8" width="1" height="1" fill="#78350F"/><rect x="3" y="3" width="1" height="1" fill="#94A3B8"/><rect x="6" y="0" width="1" height="1" fill="#22C55E"/><rect x="9" y="0" width="1" height="1" fill="#22C55E"/><rect x="10" y="0" width="1" height="1" fill="#EF4444"/><rect x="11" y="0" width="1" height="1" fill="#EF4444"/><rect x="11" y="1" width="1" height="1" fill="#EF4444"/>
</svg>