<svg xmlns="http://www.w3.org/2000/svg" viewBox="0 0 16 16" width="128" height="128" shape-rendering="crispEdges">
<rect width="16" height="16" fill="#0F172A" rx="3"/>
<rect x="12" y="8" width="1" height="1" fill="#4338CA"/><rect x="13" y="8" width="1" height="1" fill="#4338CA"/><rect x="13" y="7" width="1" height="1" fill="#4338CA"/><rect x="14" y="7" width="1" height="1" fill="#4338CA"/><rect x="14" y="6" width="1" height="1" fill="#4338CA"/><rect x="6" y="3" width="1" height="1" fill="#7C3AED"/><rect x="9" y="3" width="1" height="1" fill="#7C3AED"/><rect x="5" y="5" width="1" height="1" fill="#7C3AED"/><rect x="10" y="5" width="1" height="1" fill="#7C3AED"/><rect x="6" y="8" width="1" height="1" fill="#7C3AED"/><rect x="9" y="9" width="1" height="1" fill="#7C3AED"/><rect x="5" y="7" width="1" height="1" fill="#312E81"/><rect x="6" y="7" width="1" height="1" fill="#312E81"/><rect x="7" y="7" width="1" height="1" fill="#312E81"/><rect x="8" y="7" width="1" height="1" fill="#312E81"/><rect x="9" y="7" width="1" height="1" fill="#312E81"/><rect x="10" y="7" width="1" height="1" fill="#312E81"/><rect x="4" y="8" width="1" height="1" fill="#312E81"/><rect x="5" y="8" width="1" height="1" fill="#312E81"/><rect x="6" y="8" width="1" height="1" fill="#312E81"/><rect x="7" y="8" width="1" height="1" fill="#312E81"/><rect x="8" y="8" width="1" height="1" fill="#312E81"/><rect x="9" y="8" width="1" height="1" fill="#312E81"/><rect x="10" y="8" width="1" height="1" fill="#312E81"/><rect x="11" y="8" width="1" height="1" fill="#312E81"/><rect x="5" y="9" width="1" height="1" fill="#312E81"/><rect x="6" y="9" width="1" height="1" fill="#312E81"/><rect x="7" y="9" width="1" height="1" fill="#312E81"/><rect x="8" y="9" width="1" height="1" fill="#312E81"/><rect x="9" y="9" width="1" height="1" fill="#312E81"/><rect x="10" y="9" width="1" height="1" fill="#312E81"/><rect x="5" y="10" width="1" height="1" fill="#312E81"/><rect x="6" y="10" width="1" height="1" fill="#312E81"/><rect x="9" y="10" width="1" height="1" fill="#312E81"/><rect x="10" y="10" width="1" height="1" fill="#312E81"/><rect x="7" y="8" width="1" height="1" fill="#FBBF24"/><rect x="8" y="8" width="1" height="1" fill="#FBBF24"/><rect x="6" y="7" width="1" height="1" fill="#FFFFFF"/><rect x="9" y="8" width="1" height="1" fill="#FFFFFF"/><rect x="5" y="9" width="1" height="1" fill="#FFFFFF"/><rect x="7" y="6" width="1" height="1" fill="#1E293B"/><rect x="8" y="6" width="1" height="1" fill="#1E293B"/>
</svg>