<svg xmlns="http://www.w3.org/2000/svg" viewBox="0 0 16 16" width="128" height="128" shape-rendering="crispEdges">
<rect width="16" height="16" fill="#134E4A" rx="3"/>
<rect x="7" y="6" width="1" height="1" fill="#5EEAD4"/><rect x="8" y="6" width="1" height="1" fill="#5EEAD4"/><rect x="6" y="7" width="1" height="1" fill="#5EEAD4"/><rect x="7" y="7" width="1" height="1" fill="#5EEAD4"/><rect x="8" y="7" width="1" height="1" fill="#5EEAD4"/><rect x="9" y="7" width="1" height="1" fill="#5EEAD4"/><rect x="7" y="8" width="1" height="1" fill="#5EEAD4"/><rect x="8" y="8" width="1" height="1" fill="#5EEAD4"/><rect x="3" y="2" width="1" height="1" fill="#FFFFFF"/><rect x="12" y="2" width="1" height="1" fill="#FFFFFF"/><rect x="1" y="4" width="1" height="1" fill="#FFFFFF"/><rect x="14" y="4" width="1" height="1" fill="#FFFFFF"/><rect x="2" y="8" width="1" height="1" fill="#FFFFFF"/><rect x="13" y="8" width="1" height="1" fill="#FFFFFF"/><rect x="6" y="10" width="1" height="1" fill="#14B8A6"/><rect x="7" y="10" width="1" height="1" fill="#14B8A6"/><rect x="8" y="10" width="1" height="1" fill="#14B8A6"/><rect x="9" y="10" width="1" height="1" fill="#14B8A6"/><rect x="7" y="11" width="1" height="1" fill="#14B8A6"/><rect x="8" y="11" width="1" height="1" fill="#14B8A6"/><rect x="2" y="5" width="1" height="1" fill="#2DD4BF"/><rect x="13" y="5" width="1" height="1" fill="#2DD4BF"/><rect x="3" y="6" width="1" height="1" fill="#2DD4BF"/><rect x="12" y="6" width="1" height="1" fill="#2DD4BF"/><rect x="7" y="5" width="1" height="1" fill="#115E59"/><rect x="8" y="5" width="1" height="1" fill="#115E59"/><rect x="2" y="4" width="1" height="1" fill="#0D9488"/><rect x="3" y="4" width="1" height="1" fill="#0D9488"/><rect x="1" y="5" width="1" height="1" fill="#0D9488"/><rect x="2" y="5" width="1" height="1" fill="#0D9488"/><rect x="3" y="5" width="1" height="1" fill="#0D9488"/><rect x="2" y="6" width="1" height="1" fill="#0D9488"/><rect x="3" y="6" width="1" height="1" fill="#0D9488"/><rect x="4" y="6" width="1" height="1" fill="#0D9488"/><rect x="12" y="4" width="1" height="1" fill="#0D9488"/><rect x="13" y="4" width="1" height="1" fill="#0D9488"/><rect x="12" y="5" width="1" height="1" fill="#0D9488"/><rect x="13" y="5" width="1" height="1" fill="#0D9488"/><rect x="14" y="5" width="1" height="1" fill="#0D9488"/><rect x="11" y="6" width="1" height="1" fill="#0D9488"/><rect x="12" y="6" width="1" height="1" fill="#0D9488"/><rect x="13" y="6" width="1" height="1" fill="#0D9488"/>
</svg>