<svg xmlns="http://www.w3.org/2000/svg" viewBox="0 0 16 16" width="128" height="128" shape-rendering="crispEdges">
<rect width="16" height="16" fill="#FEF3C7" rx="3"/>
<rect x="4" y="1" width="1" height="1" fill="#D97706"/><rect x="5" y="1" width="1" height="1" fill="#D97706"/><rect x="10" y="1" width="1" height="1" fill="#D97706"/><rect x="11" y="1" width="1" height="1" fill="#D97706"/><rect x="3" y="2" width="1" height="1" fill="#D97706"/><rect x="4" y="2" width="1" height="1" fill="#D97706"/><rect x="5" y="2" width="1" height="1" fill="#D97706"/><rect x="10" y="2" width="1" height="1" fill="#D97706"/><rect x="11" y="2" width="1" height="1" fill="#D97706"/><rect x="12" y="2" width="1" height="1" fill="#D97706"/><rect x="2" y="3" width="1" height="1" fill="#D97706"/><rect x="3" y="3" width="1" height="1" fill="#D97706"/><rect x="12" y="3" width="1" height="1" fill="#D97706"/><rect x="13" y="3" width="1" height="1" fill="#D97706"/><rect x="2" y="4" width="1" height="1" fill="#D97706"/><rect x="13" y="4" width="1" height="1" fill="#D97706"/><rect x="2" y="5" width="1" height="1" fill="#D97706"/><rect x="13" y="5" width="1" height="1" fill="#D97706"/><rect x="3" y="10" width="1" height="1" fill="#D97706"/><rect x="12" y="10" width="1" height="1" fill="#D97706"/><rect x="6" y="1" width="1" height="1" fill="#F59E0B"/><rect x="7" y="1" width="1" height="1" fill="#F59E0B"/><rect x="8" y="1" width="1" height="1" fill="#F59E0B"/><rect x="9" y="1" width="1" height="1" fill="#F59E0B"/><rect x="6" y="2" width="1" height="1" fill="#F59E0B"/><rect x="7" y="2" width="1" height="1" fill="#F59E0B"/><rect x="8" y="2" width="1" height="1" fill="#F59E0B"/><rect x="9" y="2" width="1" height="1" fill="#F59E0B"/><rect x="4" y="3" width="1" height="1" fill="#F59E0B"/><rect x="5" y="3" width="1" height="1" fill="#F59E0B"/><rect x="6" y="3" width="1" height="1" fill="#F59E0B"/><rect x="7" y="3" width="1" height="1" fill="#F59E0B"/><rect x="8" y="3" width="1" height="1" fill="#F59E0B"/><rect x="9" y="3" width="1" height="1" fill="#F59E0B"/><rect x="10" y="3" width="1" height="1" fill="#F59E0B"/><rect x="11" y="3" width="1" height="1" fill="#F59E0B"/><rect x="3" y="4" width="1" height="1" fill="#F59E0B"/><rect x="4" y="4" width="1" height="1" fill="#F59E0B"/><rect x="5" y="4" width="1" height="1" fill="#F59E0B"/><rect x="6" y="4" width="1" height="1" fill="#F59E0B"/><rect x="7" y="4" width="1" height="1" fill="#F59E0B"/><rect x="8" y="4" width="1" height="1" fill="#F59E0B"/><rect x="9" y="4" width="1" height="1" fill="#F59E0B"/><rect x="10" y="4" width="1" height="1" fill="#F59E0B"/><rect x="11" y="4" width="1" height="1" fill="#F59E0B"/><rect x="12" y="4" width="1" height="1" fill="#F59E0B"/><rect x="3" y="5" width="1" height="1" fill="#F59E0B"/><rect x="4" y="5" width="1" height="1" fill="#F59E0B"/><rect x="5" y="5" width="1" height="1" fill="#F59E0B"/><rect x="6" y="5" width="1" height="1" fill="#F59E0B"/><rect x="9" y="5" width="1" height="1" fill="#F59E0B"/><rect x="10" y="5" width="1" height="1" fill="#F59E0B"/><rect x="11" y="5" width="1" height="1" fill="#F59E0B"/><rect x="12" y="5" width="1" height="1" fill="#F59E0B"/><rect x="3" y="6" width="1" height="1" fill="#F59E0B"/><rect x="4" y="6" width="1" height="1" fill="#F59E0B"/><rect x="11" y="6" width="1" height="1" fill="#F59E0B"/><rect x="12" y="6" width="1" height="1" fill="#F59E0B"/><rect x="3" y="7" width="1" height="1" fill="#F59E0B"/><rect x="4" y="7" width="1" height="1" fill="#F59E0B"/><rect x="11" y="7" width="1" height="1" fill="#F59E0B"/><rect x="12" y="7" width="1" height="1" fill="#F59E0B"/><rect x="3" y="8" width="1" height="1" fill="#F59E0B"/><rect x="4" y="8" width="1" height="1" fill="#F59E0B"/><rect x="5" y="8" width="1" height="1" fill="#F59E0B"/><rect x="10" y="8" width="1" height="1" fill="#F59E0B"/><rect x="11" y="8" width="1" height="1" fill="#F59E0B"/><rect x="12" y="8" width="1" height="1" fill="#F59E0B"/><rect x="4" y="9" width="1" height="1" fill="#F59E0B"/><rect x="5" y="9" width="1" height="1" fill="#F59E0B"/><rect x="10" y="9" width="1" height="1" fill="#F59E0B"/><rect x="11" y="9" width="1" height="1" fill="#F59E0B"/><rect x="4" y="10" width="1" height="1" fill="#F59E0B"/><rect x="5" y="10" width="1" height="1" fill="#F59E0B"/><rect x="10" y="10" width="1" height="1" fill="#F59E0B"/><rect x="11" y="10" width="1" height="1" fill="#F59E0B"/><rect x="5" y="11" width="1" height="1" fill="#F59E0B"/><rect x="6" y="11" width="1" height="1" fill="#F59E0B"/><rect x="9" y="11" width="1" height="1" fill="#F59E0B"/><rect x="10" y="11" width="1" height="1" fill="#F59E0B"/><rect x="6" y="12" width="1" height="1" fill="#F59E0B"/><rect x="7" y="12" width="1" height="1" fill="#F59E0B"/><rect x="8" y="12" width="1" height="1" fill="#F59E0B"/><rect x="9" y="12" width="1" height="1" fill="#F59E0B"/><rect x="7" y="5" width="1" height="1" fill="#1C1917"/><rect x="8" y="5" width="1" height="1" fill="#1C1917"/><rect x="7" y="8" width="1" height="1" fill="#1C1917"/><rect x="8" y="8" width="1" height="1" fill="#1C1917"/><rect x="5" y="5" width="1" height="1" fill="#FEFCE8"/><rect x="6" y="5" width="1" height="1" fill="#FEFCE8"/><rect x="9" y="5" width="1" height="1" fill="#FEFCE8"/><rect x="10" y="5" width="1" height="1" fill="#FEFCE8"/><rect x="5" y="6" width="1" height="1" fill="#FEFCE8"/><rect x="6" y="6" width="1" height="1" fill="#FEFCE8"/><rect x="7" y="6" width="1" height="1" fill="#FEFCE8"/><rect x="8" y="6" width="1" height="1" fill="#FEFCE8"/><rect x="9" y="6" width="1" height="1" fill="#FEFCE8"/><rect x="10" y="6" width="1" height="1" fill="#FEFCE8"/><rect x="5" y="7" width="1" height="1" fill="#FEFCE8"/><rect x="6" y="7" width="1" height="1" fill="#FEFCE8"/><rect x="7" y="7" width="1" height="1" fill="#FEFCE8"/><rect x="8" y="7" width="1" height="1" fill="#FEFCE8"/><rect x="9" y="7" width="1" height="1" fill="#FEFCE8"/><rect x="10" y="7" width="1" height="1" fill="#FEFCE8"/><rect x="5" y="8" width="1" height="1" fill="#FEFCE8"/><rect x="6" y="8" width="1" height="1" fill="#FEFCE8"/><rect x="9" y="8" width="1" height="1" fill="#FEFCE8"/><rect x="10" y="8" width="1" height="1" fill="#FEFCE8"/><rect x="6" y="6" width="1" height="1" fill="#292524"/><rect x="9" y="6" width="1" height="1" fill="#292524"/><rect x="7" y="6" width="1" height="1" fill="#FFFFFF"/><rect x="8" y="6" width="1" height="1" fill="#FFFFFF"/><rect x="7" y="9" width="1" height="1" fill="#F87171"/><rect x="8" y="9" width="1" height="1" fill="#F87171"/><rect x="6" y="10" width="1" height="1" fill="#F87171"/><rect x="7" y="10" width="1" height="1" fill="#F87171"/><rect x="8" y="10" width="1" height="1" fill="#F87171"/><rect x="9" y="10" width="1" height="1" fill="#F87171"/><rect x="6" y="9" width="1" height="1" fill="#78350F"/><rect x="9" y="9" width="1" height="1" fill="#78350F"/>
</svg>