<svg xmlns="http://www.w3.org/2000/svg" viewBox="0 0 16 16" width="128" height="128" shape-rendering="crispEdges">
<rect width="16" height="16" fill="#D1FAE5" rx="3"/>
<rect x="5" y="1" width="1" height="1" fill="#FBBF24"/><rect x="7" y="1" width="1" height="1" fill="#FBBF24"/><rect x="9" y="1" width="1" height="1" fill="#FBBF24"/><rect x="11" y="1" width="1" height="1" fill="#FBBF24"/><rect x="5" y="2" width="1" height="1" fill="#FBBF24"/><rect x="6" y="2" width="1" height="1" fill="#FBBF24"/><rect x="7" y="2" width="1" height="1" fill="#FBBF24"/><rect x="8" y="2" width="1" height="1" fill="#FBBF24"/><rect x="9" y="2" width="1" height="1" fill="#FBBF24"/><rect x="10" y="2" width="1" height="1" fill="#FBBF24"/><rect x="11" y="2" width="1" height="1" fill="#FBBF24"/><rect x="5" y="3" width="1" height="1" fill="#FBBF24"/><rect x="6" y="3" width="1" height="1" fill="#FBBF24"/><rect x="7" y="3" width="1" height="1" fill="#FBBF24"/><rect x="8" y="3" width="1" height="1" fill="#FBBF24"/><rect x="9" y="3" width="1" height="1" fill="#FBBF24"/><rect x="10" y="3" width="1" height="1" fill="#FBBF24"/><rect x="11" y="3" width="1" height="1" fill="#FBBF24"/><rect x="7" y="2" width="1" height="1" fill="#DC2626"/><rect x="9" y="2" width="1" height="1" fill="#DC2626"/><rect x="3" y="9" width="1" height="1" fill="#22C55E"/><rect x="12" y="9" width="1" height="1" fill="#22C55E"/><rect x="2" y="10" width="1" height="1" fill="#22C55E"/><rect x="13" y="10" width="1" height="1" fill="#22C55E"/><rect x="5" y="5" width="1" height="1" fill="#4ADE80"/><rect x="6" y="5" width="1" height="1" fill="#4ADE80"/><rect x="7" y="5" width="1" height="1" fill="#4ADE80"/><rect x="5" y="6" width="1" height="1" fill="#4ADE80"/><rect x="6" y="6" width="1" height="1" fill="#4ADE80"/><rect x="5" y="6" width="1" height="1" fill="#FFFFFF"/><rect x="6" y="6" width="1" height="1" fill="#FFFFFF"/><rect x="9" y="6" width="1" height="1" fill="#FFFFFF"/><rect x="10" y="6" width="1" height="1" fill="#FFFFFF"/><rect x="5" y="7" width="1" height="1" fill="#FFFFFF"/><rect x="6" y="7" width="1" height="1" fill="#FFFFFF"/><rect x="9" y="7" width="1" height="1" fill="#FFFFFF"/><rect x="10" y="7" width="1" height="1" fill="#FFFFFF"/><rect x="6" y="7" width="1" height="1" fill="#1E293B"/><rect x="10" y="7" width="1" height="1" fill="#1E293B"/><rect x="7" y="8" width="1" height="1" fill="#15803D"/><rect x="8" y="8" width="1" height="1" fill="#15803D"/>
</svg>